<mxfile host="Electron" agent="Mozilla/5.0 (X11; Linux x86_64) AppleWebKit/537.36 (KHTML, like Gecko) draw.io/28.0.6 Chrome/138.0.7204.100 Electron/37.2.3 Safari/537.36" version="28.0.6">
  <diagram name="Ready-to-Fly Process" id="RTF-Process">
    <mxGraphModel dx="2693" dy="998" grid="1" gridSize="10" guides="1" tooltips="1" connect="1" arrows="1" fold="1" page="1" pageScale="1" pageWidth="1100" pageHeight="850" math="0" shadow="0">
      <root>
        <mxCell id="0" />
        <mxCell id="1" parent="0" />
        <mxCell id="4uZiJ-rkuIo0SORuHt0V-47" value="&lt;span style=&quot;color: rgba(0, 0, 0, 0); font-family: monospace; font-size: 0px; text-align: start; text-wrap-mode: nowrap;&quot;&gt;%3CmxGraphModel%3E%3Croot%3E%3CmxCell%20id%3D%220%22%2F%3E%3CmxCell%20id%3D%221%22%20parent%3D%220%22%2F%3E%3CmxCell%20id%3D%222%22%20value%3D%22Take-off%20%E2%9E%9C%20Fly%20to%20room%20centre%20with%20joystick%26amp%3Bnbsp%3B%E2%9E%9C%20Pitch%20MRFT%20%E2%9E%9C%20Roll%20MRFT%26amp%3Bnbsp%3B%E2%9E%9C%20Z%20MRFT%20%E2%9E%9C%20Land%22%20style%3D%22rounded%3D0%3BwhiteSpace%3Dwrap%3Bhtml%3D1%3B%22%20vertex%3D%221%22%20parent%3D%221%22%3E%3CmxGeometry%20x%3D%221100%22%20y%3D%22400%22%20width%3D%22160%22%20height%3D%2280%22%20as%3D%22geometry%22%2F%3E%3C%2FmxCell%3E%3C%2Froot%3E%3C%2FmxGraphModel%3E&lt;/span&gt;" style="rounded=1;whiteSpace=wrap;html=1;fillColor=none;dashed=1;" parent="1" vertex="1">
          <mxGeometry x="-560" y="420" width="1440" height="180" as="geometry" />
        </mxCell>
        <mxCell id="4uZiJ-rkuIo0SORuHt0V-43" value="&lt;span style=&quot;color: rgba(0, 0, 0, 0); font-family: monospace; font-size: 0px; text-align: start; text-wrap-mode: nowrap;&quot;&gt;%3CmxGraphModel%3E%3Croot%3E%3CmxCell%20id%3D%220%22%2F%3E%3CmxCell%20id%3D%221%22%20parent%3D%220%22%2F%3E%3CmxCell%20id%3D%222%22%20value%3D%22Take-off%20%E2%9E%9C%20Fly%20to%20room%20centre%20with%20joystick%26amp%3Bnbsp%3B%E2%9E%9C%20Pitch%20MRFT%20%E2%9E%9C%20Roll%20MRFT%26amp%3Bnbsp%3B%E2%9E%9C%20Z%20MRFT%20%E2%9E%9C%20Land%22%20style%3D%22rounded%3D0%3BwhiteSpace%3Dwrap%3Bhtml%3D1%3B%22%20vertex%3D%221%22%20parent%3D%221%22%3E%3CmxGeometry%20x%3D%221100%22%20y%3D%22400%22%20width%3D%22160%22%20height%3D%2280%22%20as%3D%22geometry%22%2F%3E%3C%2FmxCell%3E%3C%2Froot%3E%3C%2FmxGraphModel%3E&lt;/span&gt;" style="rounded=1;whiteSpace=wrap;html=1;fillColor=none;dashed=1;" parent="1" vertex="1">
          <mxGeometry x="190" y="460" width="670" height="120" as="geometry" />
        </mxCell>
        <mxCell id="4uZiJ-rkuIo0SORuHt0V-36" value="&lt;span style=&quot;color: rgba(0, 0, 0, 0); font-family: monospace; font-size: 0px; text-align: start; text-wrap-mode: nowrap;&quot;&gt;%3CmxGraphModel%3E%3Croot%3E%3CmxCell%20id%3D%220%22%2F%3E%3CmxCell%20id%3D%221%22%20parent%3D%220%22%2F%3E%3CmxCell%20id%3D%222%22%20value%3D%22Take-off%20%E2%9E%9C%20Fly%20to%20room%20centre%20with%20joystick%26amp%3Bnbsp%3B%E2%9E%9C%20Pitch%20MRFT%20%E2%9E%9C%20Roll%20MRFT%26amp%3Bnbsp%3B%E2%9E%9C%20Z%20MRFT%20%E2%9E%9C%20Land%22%20style%3D%22rounded%3D0%3BwhiteSpace%3Dwrap%3Bhtml%3D1%3B%22%20vertex%3D%221%22%20parent%3D%221%22%3E%3CmxGeometry%20x%3D%221100%22%20y%3D%22400%22%20width%3D%22160%22%20height%3D%2280%22%20as%3D%22geometry%22%2F%3E%3C%2FmxCell%3E%3C%2Froot%3E%3C%2FmxGraphModel%3E&lt;/span&gt;" style="rounded=1;whiteSpace=wrap;html=1;fillColor=none;dashed=1;" parent="1" vertex="1">
          <mxGeometry x="-540" y="460" width="670" height="120" as="geometry" />
        </mxCell>
        <mxCell id="4uZiJ-rkuIo0SORuHt0V-8" value="" style="edgeStyle=orthogonalEdgeStyle;rounded=0;orthogonalLoop=1;jettySize=auto;html=1;entryX=0;entryY=0.5;entryDx=0;entryDy=0;" parent="1" source="n0" target="4uZiJ-rkuIo0SORuHt0V-12" edge="1">
          <mxGeometry relative="1" as="geometry">
            <mxPoint x="-850" y="519.8299999999999" as="targetPoint" />
          </mxGeometry>
        </mxCell>
        <mxCell id="n0" value="Start&#xa;(Ready-to-Fly)" style="rounded=1;whiteSpace=wrap;html=1;" parent="1" vertex="1">
          <mxGeometry x="-1080" y="490" width="120" height="60" as="geometry" />
        </mxCell>
        <mxCell id="n2" value="Take-off ➜ Hover ➜ Initiate bias calibration ➜ Wait for it to be done ➜&amp;nbsp;Land&lt;br&gt;&lt;br&gt;&lt;div&gt;This step records and saves the UAV&#39;s bias&lt;/div&gt;" style="rounded=0;whiteSpace=wrap;html=1;" parent="1" vertex="1">
          <mxGeometry x="-780" y="475" width="190" height="90" as="geometry" />
        </mxCell>
        <mxCell id="4uZiJ-rkuIo0SORuHt0V-32" value="" style="edgeStyle=orthogonalEdgeStyle;rounded=0;orthogonalLoop=1;jettySize=auto;html=1;" parent="1" source="n3" target="4uZiJ-rkuIo0SORuHt0V-30" edge="1">
          <mxGeometry relative="1" as="geometry" />
        </mxCell>
        <mxCell id="n3" value="Take-off ➜ Fly to room centre with joystick&amp;nbsp;➜ Pitch MRFT ➜ Roll MRFT&amp;nbsp;➜ Z MRFT ➜ Land" style="rounded=0;whiteSpace=wrap;html=1;" parent="1" vertex="1">
          <mxGeometry x="-520" y="480" width="160" height="80" as="geometry" />
        </mxCell>
        <mxCell id="4uZiJ-rkuIo0SORuHt0V-45" value="" style="edgeStyle=orthogonalEdgeStyle;rounded=0;orthogonalLoop=1;jettySize=auto;html=1;entryX=0;entryY=0.5;entryDx=0;entryDy=0;" parent="1" source="n4" target="4uZiJ-rkuIo0SORuHt0V-39" edge="1">
          <mxGeometry relative="1" as="geometry" />
        </mxCell>
        <mxCell id="n4" value="Update KP/KD&lt;br&gt;for Roll, Pitch, and Z in the UAV&#39;s Dynamo_db by changing the&amp;nbsp; values in the Confg-pid table.&amp;nbsp;Restart LEAF_FC" style="rounded=0;whiteSpace=wrap;html=1;" parent="1" vertex="1">
          <mxGeometry x="-80" y="480" width="190" height="80" as="geometry" />
        </mxCell>
        <mxCell id="e2" style="endArrow=classic;html=1;" parent="1" source="n2" target="n3" edge="1">
          <mxGeometry relative="1" as="geometry" />
        </mxCell>
        <mxCell id="4uZiJ-rkuIo0SORuHt0V-27" value="" style="edgeStyle=orthogonalEdgeStyle;rounded=0;orthogonalLoop=1;jettySize=auto;html=1;" parent="1" source="4uZiJ-rkuIo0SORuHt0V-12" target="n2" edge="1">
          <mxGeometry relative="1" as="geometry" />
        </mxCell>
        <mxCell id="4uZiJ-rkuIo0SORuHt0V-12" value="Idle the drone and do a killswitch test" style="rounded=0;whiteSpace=wrap;html=1;" parent="1" vertex="1">
          <mxGeometry x="-910" y="495" width="90" height="50" as="geometry" />
        </mxCell>
        <mxCell id="4uZiJ-rkuIo0SORuHt0V-28" value="BIAS Calibration" style="text;strokeColor=none;align=center;fillColor=none;html=1;verticalAlign=middle;whiteSpace=wrap;rounded=0;" parent="1" vertex="1">
          <mxGeometry x="-737.5" y="450" width="105" height="30" as="geometry" />
        </mxCell>
        <mxCell id="4uZiJ-rkuIo0SORuHt0V-33" value="" style="edgeStyle=orthogonalEdgeStyle;rounded=0;orthogonalLoop=1;jettySize=auto;html=1;" parent="1" source="4uZiJ-rkuIo0SORuHt0V-30" target="n4" edge="1">
          <mxGeometry relative="1" as="geometry" />
        </mxCell>
        <mxCell id="4uZiJ-rkuIo0SORuHt0V-30" value="Using the Leaf_Tuner app, find the KP, KD, and Class for the Pitch, Roll, and Z.&lt;br&gt;Note them down." style="rounded=0;whiteSpace=wrap;html=1;" parent="1" vertex="1">
          <mxGeometry x="-300" y="480" width="160" height="80" as="geometry" />
        </mxCell>
        <mxCell id="4uZiJ-rkuIo0SORuHt0V-37" value="Inner-&lt;span style=&quot;background-color: transparent; color: light-dark(rgb(0, 0, 0), rgb(255, 255, 255));&quot;&gt;Loop Tuning&lt;/span&gt;" style="text;strokeColor=none;align=center;fillColor=none;html=1;verticalAlign=middle;whiteSpace=wrap;rounded=0;" parent="1" vertex="1">
          <mxGeometry x="-257.5" y="430" width="105" height="30" as="geometry" />
        </mxCell>
        <mxCell id="4uZiJ-rkuIo0SORuHt0V-38" value="" style="edgeStyle=orthogonalEdgeStyle;rounded=0;orthogonalLoop=1;jettySize=auto;html=1;" parent="1" source="4uZiJ-rkuIo0SORuHt0V-39" target="4uZiJ-rkuIo0SORuHt0V-42" edge="1">
          <mxGeometry relative="1" as="geometry" />
        </mxCell>
        <mxCell id="4uZiJ-rkuIo0SORuHt0V-39" value="Take-off ➜ Fly to room centre with joystick&amp;nbsp;➜ X MRFT ➜ Y MRFT ➜ Land" style="rounded=0;whiteSpace=wrap;html=1;" parent="1" vertex="1">
          <mxGeometry x="210" y="480" width="160" height="80" as="geometry" />
        </mxCell>
        <mxCell id="4uZiJ-rkuIo0SORuHt0V-40" value="Update KP/KD&lt;br&gt;for X and Y in the UAV&#39;s Dynamo_db by changing the&amp;nbsp; values in the Confg-pid table.&amp;nbsp;Restart LEAF_FC" style="rounded=0;whiteSpace=wrap;html=1;" parent="1" vertex="1">
          <mxGeometry x="650" y="480" width="190" height="80" as="geometry" />
        </mxCell>
        <mxCell id="4uZiJ-rkuIo0SORuHt0V-41" value="" style="edgeStyle=orthogonalEdgeStyle;rounded=0;orthogonalLoop=1;jettySize=auto;html=1;" parent="1" source="4uZiJ-rkuIo0SORuHt0V-42" target="4uZiJ-rkuIo0SORuHt0V-40" edge="1">
          <mxGeometry relative="1" as="geometry" />
        </mxCell>
        <mxCell id="4uZiJ-rkuIo0SORuHt0V-42" value="Using the Leaf_Tuner app, find the KP and KD for the X and Y.&lt;br&gt;Note them down." style="rounded=0;whiteSpace=wrap;html=1;" parent="1" vertex="1">
          <mxGeometry x="430" y="480" width="160" height="80" as="geometry" />
        </mxCell>
        <mxCell id="4uZiJ-rkuIo0SORuHt0V-44" value="Outer-&lt;span style=&quot;background-color: transparent; color: light-dark(rgb(0, 0, 0), rgb(255, 255, 255));&quot;&gt;Loop Tuning&lt;/span&gt;" style="text;strokeColor=none;align=center;fillColor=none;html=1;verticalAlign=middle;whiteSpace=wrap;rounded=0;" parent="1" vertex="1">
          <mxGeometry x="472.5" y="430" width="105" height="30" as="geometry" />
        </mxCell>
        <mxCell id="4uZiJ-rkuIo0SORuHt0V-48" value="Refined Tuning" style="text;strokeColor=none;align=center;fillColor=none;html=1;verticalAlign=middle;whiteSpace=wrap;rounded=0;" parent="1" vertex="1">
          <mxGeometry x="63.75" y="390" width="192.5" height="30" as="geometry" />
        </mxCell>
        <mxCell id="4uZiJ-rkuIo0SORuHt0V-51" value="" style="edgeStyle=orthogonalEdgeStyle;rounded=0;orthogonalLoop=1;jettySize=auto;html=1;exitX=1;exitY=0.5;exitDx=0;exitDy=0;entryX=-0.021;entryY=0.531;entryDx=0;entryDy=0;entryPerimeter=0;" parent="1" source="4uZiJ-rkuIo0SORuHt0V-40" target="4uZiJ-rkuIo0SORuHt0V-82" edge="1">
          <mxGeometry relative="1" as="geometry">
            <mxPoint x="690" y="640" as="sourcePoint" />
            <mxPoint x="1010" y="520" as="targetPoint" />
          </mxGeometry>
        </mxCell>
        <mxCell id="4uZiJ-rkuIo0SORuHt0V-82" value="Finish&#xa;Drone Ready to Fly 😊" style="rounded=1;whiteSpace=wrap;html=1;" parent="1" vertex="1">
          <mxGeometry x="920" y="488" width="140" height="60" as="geometry" />
        </mxCell>
        <mxCell id="mLs2Mze-VJqQUgzR3Upy-1" value="Revision History" style="swimlane;fontStyle=0;childLayout=stackLayout;horizontal=1;startSize=30;horizontalStack=0;resizeParent=1;resizeParentMax=0;resizeLast=0;collapsible=1;marginBottom=0;whiteSpace=wrap;html=1;" parent="1" vertex="1">
          <mxGeometry x="-853" y="25.139999999999873" width="140" height="120" as="geometry" />
        </mxCell>
        <mxCell id="mLs2Mze-VJqQUgzR3Upy-2" value="Item 1" style="text;strokeColor=none;fillColor=none;align=left;verticalAlign=middle;spacingLeft=4;spacingRight=4;overflow=hidden;points=[[0,0.5],[1,0.5]];portConstraint=eastwest;rotatable=0;whiteSpace=wrap;html=1;" parent="mLs2Mze-VJqQUgzR3Upy-1" vertex="1">
          <mxGeometry y="30" width="140" height="30" as="geometry" />
        </mxCell>
        <mxCell id="mLs2Mze-VJqQUgzR3Upy-3" value="Item 2" style="text;strokeColor=none;fillColor=none;align=left;verticalAlign=middle;spacingLeft=4;spacingRight=4;overflow=hidden;points=[[0,0.5],[1,0.5]];portConstraint=eastwest;rotatable=0;whiteSpace=wrap;html=1;" parent="mLs2Mze-VJqQUgzR3Upy-1" vertex="1">
          <mxGeometry y="60" width="140" height="30" as="geometry" />
        </mxCell>
        <mxCell id="mLs2Mze-VJqQUgzR3Upy-4" value="Item 3" style="text;strokeColor=none;fillColor=none;align=left;verticalAlign=middle;spacingLeft=4;spacingRight=4;overflow=hidden;points=[[0,0.5],[1,0.5]];portConstraint=eastwest;rotatable=0;whiteSpace=wrap;html=1;" parent="mLs2Mze-VJqQUgzR3Upy-1" vertex="1">
          <mxGeometry y="90" width="140" height="30" as="geometry" />
        </mxCell>
        <mxCell id="mLs2Mze-VJqQUgzR3Upy-5" value="&lt;h1 style=&quot;margin-top: 0px;&quot;&gt;&lt;span style=&quot;background-color: transparent; color: light-dark(rgb(0, 0, 0), rgb(255, 255, 255));&quot;&gt;Scope&lt;/span&gt;&lt;/h1&gt;&lt;h1 style=&quot;margin-top: 0px;&quot;&gt;&lt;span style=&quot;background-color: transparent; color: light-dark(rgb(0, 0, 0), rgb(255, 255, 255)); font-size: 12px; font-weight: normal;&quot;&gt;This document details the Ready-To-Fly process. It shows the refined tuning process.&lt;/span&gt;&lt;/h1&gt;" style="text;html=1;whiteSpace=wrap;overflow=hidden;rounded=0;" parent="1" vertex="1">
          <mxGeometry x="-1070" y="20" width="180" height="230" as="geometry" />
        </mxCell>
        <mxCell id="eZV-i_qrXfh6qroKjI9S-1" value="&lt;b&gt;Important to Note:&lt;br&gt;&lt;/b&gt;&lt;div&gt;FSAC: full battery&lt;br&gt;Bias: no wind, oscillations&lt;br&gt;Tune with updated CTW from hover (BIAS Calibration)&lt;br&gt;Never tune with payload and fly with less payload&lt;/div&gt;" style="rounded=0;whiteSpace=wrap;html=1;" vertex="1" parent="1">
          <mxGeometry x="-680" y="25.14" width="250" height="170" as="geometry" />
        </mxCell>
      </root>
    </mxGraphModel>
  </diagram>
</mxfile>
